<svg width="151" height="35" viewBox="0 0 151 35" fill="none" xmlns="http://www.w3.org/2000/svg">
	<style>
		:root {
		--svg-fill: #000000; /* Default color for light mode */
		}

		@media (prefers-color-scheme: dark) {
		:root {
		--svg-fill: #ffffff; /* Color for dark mode */
		}
		}

		.mySvg {
		fill: var(--svg-fill);
		}
	</style>
	<path
		d="M0.8 22.72C1.22667 20.3467 2 18.2933 3.12 16.56C4.24 14.8 5.58667 13.4667 7.16 12.56C8.73333 11.6267 10.4 11.16 12.16 11.16C13.6267 11.16 14.84 11.4667 15.8 12.08C16.76 12.6667 17.4267 13.48 17.8 14.52L18.36 11.44H27.2L23.2 34H14.36L14.92 30.92C14.1733 31.96 13.2133 32.7867 12.04 33.4C10.8667 33.9867 9.54667 34.28 8.08 34.28C5.81333 34.28 3.98667 33.52 2.6 32C1.21333 30.48 0.52 28.3733 0.52 25.68C0.52 24.6667 0.613333 23.68 0.8 22.72ZM16.36 22.72C16.4133 22.48 16.44 22.16 16.44 21.76C16.44 20.8533 16.2 20.16 15.72 19.68C15.24 19.1733 14.5867 18.92 13.76 18.92C12.8 18.92 11.9467 19.2533 11.2 19.92C10.48 20.5867 10.0133 21.52 9.8 22.72C9.74667 22.96 9.72 23.28 9.72 23.68C9.72 24.5867 9.96 25.2933 10.44 25.8C10.92 26.28 11.5733 26.52 12.4 26.52C13.36 26.52 14.2 26.1867 14.92 25.52C15.6667 24.8533 16.1467 23.92 16.36 22.72ZM41.4575 4.4L36.2175 34H27.3375L32.5775 4.4H41.4575ZM41.1781 22.72C41.6048 20.3467 42.3781 18.2933 43.4981 16.56C44.6181 14.8 45.9648 13.4667 47.5381 12.56C49.1115 11.6267 50.7781 11.16 52.5381 11.16C54.0048 11.16 55.2181 11.4667 56.1781 12.08C57.1381 12.6667 57.8048 13.48 58.1781 14.52L58.7381 11.44H67.5781L63.5781 34H54.7381L55.2981 30.92C54.5515 31.96 53.5915 32.7867 52.4181 33.4C51.2448 33.9867 49.9248 34.28 48.4581 34.28C46.1915 34.28 44.3648 33.52 42.9781 32C41.5915 30.48 40.8981 28.3733 40.8981 25.68C40.8981 24.6667 40.9915 23.68 41.1781 22.72ZM56.7381 22.72C56.7915 22.48 56.8181 22.16 56.8181 21.76C56.8181 20.8533 56.5781 20.16 56.0981 19.68C55.6181 19.1733 54.9648 18.92 54.1381 18.92C53.1781 18.92 52.3248 19.2533 51.5781 19.92C50.8581 20.5867 50.3915 21.52 50.1781 22.72C50.1248 22.96 50.0981 23.28 50.0981 23.68C50.0981 24.5867 50.3381 25.2933 50.8181 25.8C51.2981 26.28 51.9515 26.52 52.7781 26.52C53.7381 26.52 54.5781 26.1867 55.2981 25.52C56.0448 24.8533 56.5248 23.92 56.7381 22.72ZM68.5156 22.72C68.9423 20.3467 69.7156 18.2933 70.8356 16.56C71.9556 14.8 73.3023 13.4667 74.8756 12.56C76.449 11.6267 78.1156 11.16 79.8756 11.16C81.3423 11.16 82.5423 11.4667 83.4756 12.08C84.4356 12.6667 85.1023 13.48 85.4756 14.52L87.2756 4.4H96.1556L90.9156 34H82.0356L82.5956 30.92C81.849 31.96 80.889 32.7867 79.7156 33.4C78.569 33.9867 77.2623 34.28 75.7956 34.28C73.529 34.28 71.7023 33.52 70.3156 32C68.929 30.48 68.2356 28.3733 68.2356 25.68C68.2356 24.6667 68.329 23.68 68.5156 22.72ZM84.0756 22.72C84.129 22.48 84.1556 22.16 84.1556 21.76C84.1556 20.8533 83.9156 20.16 83.4356 19.68C82.9556 19.1733 82.3023 18.92 81.4756 18.92C80.5156 18.92 79.6623 19.2533 78.9156 19.92C78.1956 20.5867 77.729 21.52 77.5156 22.72C77.4623 22.96 77.4356 23.28 77.4356 23.68C77.4356 24.5867 77.6756 25.2933 78.1556 25.8C78.6356 26.28 79.289 26.52 80.1156 26.52C81.0756 26.52 81.9156 26.1867 82.6356 25.52C83.3823 24.8533 83.8623 23.92 84.0756 22.72ZM95.8531 22.72C96.2798 20.3467 97.0531 18.2933 98.1731 16.56C99.2931 14.8 100.64 13.4667 102.213 12.56C103.786 11.6267 105.453 11.16 107.213 11.16C108.68 11.16 109.893 11.4667 110.853 12.08C111.813 12.6667 112.48 13.48 112.853 14.52L113.413 11.44H122.253L118.253 34H109.413L109.973 30.92C109.226 31.96 108.266 32.7867 107.093 33.4C105.92 33.9867 104.6 34.28 103.133 34.28C100.866 34.28 99.0398 33.52 97.6531 32C96.2665 30.48 95.5731 28.3733 95.5731 25.68C95.5731 24.6667 95.6665 23.68 95.8531 22.72ZM111.413 22.72C111.466 22.48 111.493 22.16 111.493 21.76C111.493 20.8533 111.253 20.16 110.773 19.68C110.293 19.1733 109.64 18.92 108.813 18.92C107.853 18.92 107 19.2533 106.253 19.92C105.533 20.5867 105.066 21.52 104.853 22.72C104.8 22.96 104.773 23.28 104.773 23.68C104.773 24.5867 105.013 25.2933 105.493 25.8C105.973 26.28 106.626 26.52 107.453 26.52C108.413 26.52 109.253 26.1867 109.973 25.52C110.72 24.8533 111.2 23.92 111.413 22.72ZM131.191 9.64C129.804 9.64 128.711 9.30667 127.911 8.64C127.137 7.97333 126.751 7.10666 126.751 6.04C126.751 5.10667 127.004 4.24 127.511 3.44C128.017 2.64 128.724 2.01333 129.631 1.56C130.564 1.08 131.591 0.839998 132.711 0.839998C134.071 0.839998 135.137 1.18666 135.911 1.88C136.711 2.54666 137.111 3.42666 137.111 4.52C137.111 5.45333 136.857 6.30667 136.351 7.08C135.844 7.85333 135.137 8.48 134.231 8.96C133.324 9.41333 132.311 9.64 131.191 9.64ZM135.271 11.44L131.271 34H122.391L126.391 11.44H135.271ZM144.231 9.64C142.845 9.64 141.751 9.30667 140.951 8.64C140.178 7.97333 139.791 7.10666 139.791 6.04C139.791 5.10667 140.045 4.24 140.551 3.44C141.058 2.64 141.765 2.01333 142.671 1.56C143.605 1.08 144.631 0.839998 145.751 0.839998C147.111 0.839998 148.178 1.18666 148.951 1.88C149.751 2.54666 150.151 3.42666 150.151 4.52C150.151 5.45333 149.898 6.30667 149.391 7.08C148.885 7.85333 148.178 8.48 147.271 8.96C146.365 9.41333 145.351 9.64 144.231 9.64ZM148.311 11.44L144.311 34H135.431L139.431 11.44H148.311Z"
		class="mySvg" />
</svg>