<svg width="20" height="20" viewBox="0 0 20 20" fill="none" xmlns="http://www.w3.org/2000/svg">
<g clip-path="url(#clip0_49_268)">
<path d="M10.2041 8.18184V12.0546H15.6958C15.4546 13.3001 14.731 14.3546 13.6456 15.0637L16.9573 17.5819C18.8868 15.8365 20 13.2729 20 10.2274C20 9.51832 19.9351 8.83644 19.8145 8.18195L10.2041 8.18184Z" fill="#4285F4"/>
<path d="M4.48548 11.9034L3.73857 12.4637L1.09473 14.4819C2.77377 17.7455 6.21509 20.0001 10.2039 20.0001C12.959 20.0001 15.2688 19.1092 16.9572 17.5819L13.6455 15.0637C12.7364 15.6637 11.5768 16.0274 10.2039 16.0274C7.55089 16.0274 5.29677 14.2729 4.48965 11.9092L4.48548 11.9034Z" fill="#34A853"/>
<path d="M1.09479 5.51822C0.399092 6.86362 0.000244141 8.38183 0.000244141 10C0.000244141 11.6182 0.399092 13.1364 1.09479 14.4818C1.09479 14.4908 4.49004 11.8999 4.49004 11.8999C4.28596 11.2999 4.16533 10.6636 4.16533 9.99989C4.16533 9.33617 4.28596 8.69984 4.49004 8.09984L1.09479 5.51822Z" fill="#FBBC05"/>
<path d="M10.2042 3.98184C11.707 3.98184 13.0428 4.49092 14.1096 5.47275L17.0316 2.60914C15.2598 0.990976 12.9593 0 10.2042 0C6.2153 0 2.77377 2.24546 1.09473 5.51822L4.48988 8.10005C5.29688 5.73638 7.5511 3.98184 10.2042 3.98184Z" fill="#EA4335"/>
</g>
<defs>
<clipPath id="clip0_49_268">
<rect width="20" height="20" fill="white"/>
</clipPath>
</defs>
</svg>
